<svg width="598" height="274" viewBox="0 0 598 274" fill="none" xmlns="http://www.w3.org/2000/svg">
<g clip-path="url(#clip0_4250_61068)">
<path d="M0.734375 216.084V166.251L81.9107 38.5859H153.831V161.114H170.781V216.084H153.831V239.201H76.7735V216.084H0.734375ZM65.724 135.174L61.0959 142.104C80.6148 151.349 96.0263 153.663 110.674 153.663V145.957C97.056 145.957 83.4495 142.879 65.724 135.174Z" stroke="black" stroke-width="3" stroke-linecap="round" stroke-linejoin="round"/>
<path d="M519.7 242.292C488.102 242.292 468.583 237.664 451.633 228.164V170.881C465.505 178.586 483.231 185.262 502.495 185.262C510.976 185.262 522.535 181.409 522.535 170.36C522.535 157.008 504.3 153.41 477.585 155.978V115.911C503.016 117.45 522.535 114.117 522.535 103.322C522.535 96.3918 516.889 91.7637 505.064 91.7637C487.593 91.7637 466.535 98.6943 451.633 106.666V48.8616C468.074 40.1261 491.966 34.7344 527.406 34.7344C574.415 34.7344 598.042 56.3127 598.042 94.5869C598.042 128.233 568.503 145.195 547.434 148.018L549.227 153.93C559.247 152.137 570.551 148.284 579.541 142.372C587.756 148.284 598.042 164.205 598.042 179.871C598.042 221.743 566.698 242.292 519.7 242.292Z" stroke="black" stroke-width="3" stroke-linecap="round" stroke-linejoin="round"/>
<path d="M410.443 214.583C409.009 215.659 407.967 217.094 406.625 218.204C406.359 218.424 406.081 218.69 405.769 218.794C404.3 219.315 403.779 218.829 403.814 217.614C403.883 215.092 403.837 212.57 403.837 209.827C402.379 211.065 401.037 212.153 399.729 213.299C398.491 214.386 397.057 215.254 395.992 216.561C395.495 217.175 394.291 217.047 393.794 216.538C393.273 216.018 393.424 215.647 393.991 215.335C397.705 213.275 400.817 210.464 403.71 207.398C403.86 207.236 404.022 207.074 404.172 206.912C404.519 206.53 404.936 206.426 405.387 206.657C405.827 206.889 405.769 207.317 405.7 207.756C405.214 210.73 405.595 213.715 405.491 216.897C406.891 215.578 408.141 214.432 409.344 213.229C409.911 212.662 410.559 212.199 411.23 211.771C411.948 211.308 412.584 211.632 412.619 212.489C412.642 213.056 412.688 213.646 412.422 214.189C411.207 216.723 411.022 219.523 410.328 222.196C409.772 224.348 409.309 226.523 408.789 228.687C408.546 229.705 408.569 229.728 409.645 229.786C413.533 229.983 417.42 230.098 421.319 230.214C425.184 230.33 429.037 230.573 432.913 230.561C433.075 230.561 433.248 230.538 433.387 230.584C433.954 230.769 434.683 230.897 434.613 231.672C434.544 232.424 433.896 232.436 433.283 232.424C429.141 232.331 425.01 232.077 420.868 231.869C418.195 231.73 415.511 231.718 412.827 231.626C408.939 231.487 405.063 231.302 401.176 231.151C398.688 231.047 396.2 230.966 393.713 230.885C393.493 230.885 393.192 230.839 393.088 231.036C392.544 232.031 391.734 231.776 390.844 231.684C388.217 231.417 385.568 231.313 382.941 231.059C379.667 230.735 376.392 230.677 373.106 230.7C371.961 230.7 370.816 230.908 369.67 230.874C364.545 230.712 359.419 230.469 354.293 230.33C351.355 230.249 348.404 230.376 345.465 230.284C340.155 230.11 334.844 230.376 329.533 230.538C323.251 230.735 316.968 230.341 310.685 230.526C305.942 230.665 301.198 231.001 296.454 231.255C295.147 231.325 293.839 231.452 292.532 231.452C289.813 231.452 287.14 231.926 284.467 232.32C281.124 232.817 277.791 233.269 274.378 232.852C273.001 232.679 271.578 232.829 270.178 232.621C268.454 233.905 266.765 232.25 264.983 232.551C262.542 232.956 260.066 233.176 257.601 233.454C254.917 233.743 252.244 234.217 249.549 234.356C245.73 234.564 241.912 234.888 238.083 234.981C235.745 235.039 233.42 235.71 231.083 235.802C227.426 235.941 223.84 236.809 220.16 236.774C216.747 236.74 213.38 237.307 210.002 237.642C209.296 237.712 209.296 238.383 209.192 238.892C209.111 239.297 209.065 239.644 208.555 239.702C208.035 239.771 207.827 239.436 207.769 239.054C207.63 237.966 207.04 238.105 206.137 238.128C202.689 238.209 199.242 238.336 195.805 238.024C194.116 237.874 192.427 238.059 190.737 238.117C188.99 238.186 187.232 238.325 185.485 238.047C185.242 238.012 185.045 238.082 184.848 238.198C184.42 238.44 184.004 238.452 183.599 238.128C183.321 237.897 183.205 237.561 183.379 237.272C183.633 236.855 183.842 236.346 184.478 236.335C185.751 236.288 187.023 236.335 188.285 236.485C189.731 236.659 191.142 236.346 192.577 236.323C195.585 236.265 198.57 236.636 201.579 236.543C203.245 236.497 204.888 236.369 206.531 236.173C207.121 236.103 207.19 235.895 207.109 235.398C206.693 232.563 206.195 229.74 205.513 226.963C205.189 225.667 204.818 224.383 204.471 223.087C204.39 222.774 204.309 222.462 204.263 222.15C203.997 220.379 204.888 219.523 206.6 219.917C208.243 220.287 209.898 220.669 211.425 221.432C211.969 221.71 212.212 221.698 212.316 220.935C212.512 219.384 212.397 217.811 212.64 216.26C212.825 215.092 212.593 213.912 212.362 212.743C212.212 212.026 212.304 211.332 212.57 210.672C212.894 209.851 213.704 209.712 214.213 210.429C215.289 211.933 216.446 213.368 217.603 214.814C218.425 215.844 219.385 216.712 220.6 217.279C221.283 217.591 221.468 217.406 221.549 216.689C221.653 215.694 221.503 214.733 221.468 213.75C221.445 213.171 221.595 212.743 222.093 212.616C223.007 212.384 223.007 211.69 223.041 211.019C223.296 206.692 223.863 202.399 224.36 198.107C224.65 195.608 224.823 193.097 224.997 190.586C225.228 187.416 225.552 184.246 226.05 181.099C226.408 178.808 226.593 176.482 226.906 174.18C227.403 170.454 227.496 166.694 227.808 162.957C228.097 159.532 228.398 156.096 228.85 152.694C229.324 149.096 229.659 145.486 229.949 141.864C230.053 140.568 230.111 139.273 230.157 137.965C230.296 133.916 230.4 129.854 230.574 125.805C230.712 122.461 230.932 119.129 231.117 115.785C231.117 115.6 231.117 115.415 231.117 115.114C229.382 116.942 227.531 118.469 225.714 120.043C224.615 120.992 223.307 121.605 221.954 122.079C221.028 122.403 219.223 121.466 218.552 120.517C216.319 117.405 214.572 113.992 212.536 110.752C211.02 108.345 209.169 106.193 207.792 103.694C206.681 101.704 206.207 99.5522 205.79 97.3538C205.663 96.6481 206.114 96.1505 206.646 95.7456C209.504 93.6051 212.351 91.4646 215.208 89.3242C221.329 84.7308 227.369 80.0449 233.651 75.6829C237.423 73.0681 240.79 70.0251 244.203 66.9937C248.183 63.4648 252.302 60.0748 256.78 57.1822C259.025 55.7244 261.477 54.6021 263.664 53.0285C265.377 51.8021 266.95 50.4137 268.593 49.1062C271.532 46.7691 274.424 44.3625 277.386 42.0716C278.925 40.8799 280.661 39.9658 282.176 38.7625C283.854 37.4319 285.624 36.2981 287.51 35.2683C289.327 34.2733 291.19 33.7295 293.249 33.8336C295.806 33.9609 298.352 33.4518 300.909 33.6601C304.414 33.9493 308.001 33.6138 311.38 35.0253C314.075 36.1592 316.794 37.2584 319.409 38.5658C323.32 40.498 327.231 42.4071 331.246 44.1079C333.594 45.103 335.584 46.6881 337.401 48.412C339.727 50.6335 342.353 52.4037 345.014 54.1624C347.756 55.9789 350.221 58.1425 352.778 60.2136C356.04 62.8632 359.222 65.6169 362.809 67.8499C364.695 69.0301 366.592 70.2102 368.432 71.4598C369.45 72.154 370.422 72.9639 371.336 73.797C373.106 75.4284 375.085 76.7705 377.168 77.9391C378.822 78.8647 380.118 80.1837 381.402 81.4911C383.358 83.4812 385.533 85.1936 387.581 87.068C390.392 89.6597 393.817 91.3836 396.779 93.7671C397.381 94.2415 397.936 94.7621 398.549 95.2249C399.405 95.8613 399.984 96.9142 401.338 96.7753C401.893 96.7175 402.31 97.3654 402.714 97.7357C404.589 99.4943 406.926 100.744 408.511 102.85C408.962 103.451 409.587 103.949 410.212 104.377C411.878 105.534 411.728 107.177 411.519 108.855C411.392 109.884 410.895 110.752 410.258 111.504C409.032 112.962 408.442 114.779 407.331 116.306C406.058 118.053 404.624 119.615 402.842 120.841C401.604 121.686 400.4 121.05 399.452 120.413C395.529 117.787 391.711 115.021 387.835 112.326C386.366 111.307 384.873 110.336 383.392 109.352C383.242 109.248 383.034 109.155 382.86 109.167C381.749 109.248 380.835 108.681 380.118 108.01C378.093 106.101 375.721 104.643 373.535 102.954C370.827 100.86 367.703 99.4712 364.845 97.62C361.698 95.572 358.505 93.6051 355.566 91.2448C352.211 88.5374 348.589 86.2696 344.794 84.2101C340.317 81.7804 335.943 79.1655 331.87 76.0879C330.817 75.2895 329.464 74.9309 328.318 74.2482C326.178 72.9755 324.292 71.321 322.14 70.083C318.727 68.116 315.418 65.9293 311.542 64.8879C310.037 64.483 308.58 63.9392 307.029 63.7194C306.844 63.6962 306.636 63.6499 306.485 63.5458C304.472 62.1227 302.216 62.9557 300.076 62.8747C298.757 62.8285 297.426 63.2334 296.13 63.488C294.256 63.8466 292.671 64.9342 291.201 66.126C289.813 67.2483 288.367 68.3011 286.839 69.2383C285.682 69.9441 284.733 70.8813 283.692 71.7259C281.343 73.635 279.076 75.6251 276.762 77.5689C275.57 78.5755 274.355 79.5589 273.117 80.5192C270.872 82.2548 268.628 83.9787 266.337 85.6564C262.53 88.4332 258.643 91.106 255.206 94.3687C252.985 96.4745 250.439 98.1985 247.987 100.027C245.916 101.565 244.134 103.463 242.04 104.979C238.939 107.223 236.382 110.093 233.489 112.592C233.119 112.916 232.911 113.321 232.934 113.853C233.003 115.808 233.026 117.764 232.726 119.696C232.008 124.347 232.228 129.056 231.823 133.719C231.673 135.524 231.707 137.352 231.626 139.168C231.453 143.206 231.233 147.233 230.678 151.248C230.203 154.615 229.891 158.005 229.659 161.406C229.405 165.224 229.023 169.019 228.734 172.838C228.421 176.933 227.693 180.983 227.218 185.056C226.929 187.52 226.79 190.008 226.57 192.472C226.316 195.423 226.119 198.373 225.702 201.3C225.379 203.533 225.263 205.801 225.066 208.057C224.858 210.568 224.615 213.067 224.499 215.589C224.464 216.48 224.615 217.36 224.094 218.181C222.116 221.259 223.261 224.765 222.787 228.062C222.544 229.763 222.625 231.498 222.521 233.222C222.498 233.697 222.555 233.743 223.064 233.708C226.848 233.442 230.562 232.598 234.345 232.343C237.215 232.146 240.073 231.938 242.942 231.857C246.402 231.753 249.849 231.255 253.297 231.024C257.023 230.769 260.76 230.642 264.509 230.827C264.544 230.827 264.567 230.85 264.601 230.85C265.458 230.816 266.476 231.047 267.135 230.665C267.853 230.26 267.332 229.173 267.401 228.398C267.61 226.141 267.633 223.885 267.748 221.617C267.98 216.862 268.223 212.118 268.362 207.363C268.431 204.818 268.616 202.261 268.732 199.715C268.894 196.152 269.195 192.599 269.472 189.036C269.715 185.866 269.947 182.684 270.271 179.514C270.502 177.338 270.872 175.163 271.208 173C271.775 169.355 272.423 165.722 273.291 162.124C274.239 158.178 275.72 154.476 277.757 150.993C277.849 150.831 278.069 150.669 277.896 150.496C277.294 149.894 277.803 149.477 278.208 148.876C275.107 149.373 272.134 149.848 269.16 150.299C267.552 150.542 265.967 150.866 264.324 150.808C263.468 150.785 262.912 150.403 262.831 149.639C262.727 148.725 262.426 147.73 263.167 146.897C263.352 146.689 263.317 146.411 263.306 146.157C263.063 142.119 262.958 138.069 262.507 134.054C262.218 131.463 262.311 128.906 262.368 126.326C262.391 125.342 262.091 124.405 262.299 123.387C262.646 121.709 263.155 121.026 264.867 120.922C266.094 120.853 267.239 120.76 268.35 120.112C268.94 119.777 269.773 119.823 270.502 119.765C273.048 119.569 275.581 119.302 278.127 119.245C280.291 119.198 282.454 119.43 284.618 119.534C285.393 119.569 285.867 119.43 286.434 118.643C287.314 117.405 288.124 116.109 288.957 114.848C291.722 110.636 294.14 106.217 296.813 101.947C298.444 99.3208 300.411 96.9142 301.88 94.1836C302.216 93.5704 302.575 92.9688 302.945 92.3671C303.674 91.1985 304.484 91.0597 305.479 91.9969C307.052 93.4894 308.499 95.1092 309.933 96.7406C311.287 98.2679 312.409 99.9803 313.809 101.473C315.695 103.486 318.067 104.932 320.103 106.749C322.556 108.924 325.206 110.891 327.289 113.46C327.832 114.119 328.376 114.802 328.619 115.658C328.689 115.924 328.827 116.167 329.221 116.144C331.442 116.005 333.675 115.855 335.897 115.785C337.574 115.727 339.241 115.531 340.941 115.623C343.487 115.75 346.044 115.797 348.601 115.554C350.117 115.415 351.621 115.183 353.171 115.484C354.629 115.762 355.416 116.641 355.786 117.949C356.283 119.731 356.422 121.582 356.596 123.421C357.14 129.253 356.931 135.107 356.966 140.95C356.966 141.818 356.503 142.709 356.85 143.507C357.186 144.282 356.978 144.919 356.781 145.613C356.735 145.763 356.677 145.949 356.573 146.03C356.017 146.411 355.971 146.955 356.017 147.557C356.075 148.448 355.578 148.911 354.733 149.038C352.245 149.42 349.769 149.882 347.236 149.628C345.998 149.501 344.76 149.35 343.521 149.443C343.336 149.454 343.105 149.362 343.001 149.582C342.897 149.79 343.093 149.929 343.209 150.079C345.118 152.625 347.212 155.031 348.925 157.727C350.371 159.995 351.146 162.529 351.921 165.051C352.731 167.7 353.576 170.35 353.969 173.092C354.212 174.793 354.34 176.505 354.49 178.218C354.779 181.573 355.045 184.94 355.416 188.295C355.624 190.158 355.566 192.056 355.67 193.942C356.04 201.034 355.67 208.127 355.913 215.219C355.983 217.094 355.971 218.979 356.029 220.854C356.087 223.179 355.647 225.493 355.612 227.819C355.612 228.571 355.821 228.629 356.445 228.652C364.626 228.884 372.806 228.814 380.997 228.837C383.901 228.837 386.806 228.965 389.71 229.022C390.739 229.046 390.867 228.884 390.612 227.865C390.496 227.403 390.381 226.94 390.207 226.488C390.08 226.141 390.103 225.794 390.334 225.586C391.376 224.637 391.133 223.353 391.225 222.196C391.526 217.996 391.63 213.784 391.908 209.596C392.163 205.789 391.734 202.018 391.827 198.223C391.92 194.358 391.665 190.494 391.584 186.629C391.538 183.991 391.63 181.33 391.422 178.692C390.948 172.733 391.225 166.763 390.844 160.816C390.589 156.94 390.439 153.064 389.953 149.2C389.686 147.048 389.675 144.873 389.525 142.709C389.305 139.759 389.05 136.808 388.819 133.858C388.668 131.891 388.529 129.912 388.379 127.945C388.136 124.902 387.882 121.848 387.65 118.805C387.592 118.099 387.627 117.393 387.615 116.699C387.615 116.167 387.696 115.658 387.129 115.253C386.748 114.987 386.84 114.443 387.129 114.131C387.523 113.702 388.055 113.436 388.657 113.541C389.131 113.621 389.374 113.969 389.316 114.455C389.039 117.012 389.374 119.545 389.513 122.091C389.698 125.585 390.08 129.068 390.358 132.55C390.589 135.478 390.797 138.405 391.029 141.332C391.237 143.901 391.491 146.469 391.711 149.038C391.873 151.039 392.035 153.041 392.163 155.043C392.371 158.375 392.567 161.719 392.706 165.051C392.776 166.74 392.706 168.441 392.753 170.142C392.857 173.671 393.053 177.2 393.111 180.74C393.181 184.836 393.273 188.943 393.366 193.039C393.482 198.107 393.829 203.175 393.667 208.242C393.528 212.766 393.424 217.29 392.972 221.791C392.787 223.654 392.822 225.54 392.579 227.403C392.51 227.935 393.019 228.293 393.053 228.884C393.1 229.566 393.956 229.184 394.442 229.207C398.329 229.393 402.229 229.508 406.116 229.693C406.648 229.717 406.741 229.52 406.857 229.092C407.991 224.88 408.951 220.622 409.888 216.365C410.015 215.775 410.189 215.208 410.351 214.583H410.443ZM353.854 191.199C353.854 190.447 353.888 189.961 353.854 189.487C353.553 186.097 353.24 182.695 352.94 179.305C352.778 177.466 352.708 175.614 352.431 173.798C351.898 170.396 350.938 167.087 349.816 163.848C349.26 162.262 348.728 160.654 347.86 159.185C346.414 156.732 344.563 154.568 342.85 152.312C342.619 152 342.503 151.456 342.006 151.479C340.941 151.525 340.722 150.854 340.652 150.033C340.606 149.443 340.282 149.258 339.761 149.315C337.181 149.616 334.589 149.593 332.032 149.223C327.289 148.54 322.499 148.529 317.732 148.309C312.803 148.077 307.92 148.737 303.014 149.015C300.851 149.142 298.676 149.107 296.5 148.911C294.094 148.702 291.664 148.714 289.234 148.668C287.348 148.633 285.462 148.494 283.565 148.644C282.836 148.702 282.593 149.385 282.049 149.535C281.066 149.813 280.429 150.461 279.839 151.213C278.115 153.411 277.086 155.968 276.206 158.56C274.887 162.413 274.239 166.451 273.487 170.454C272.469 175.846 272.064 181.307 271.474 186.745C271.069 190.413 270.815 194.115 270.71 197.806C270.572 202.365 270.259 206.912 270.132 211.459C270.005 215.67 269.658 219.87 269.6 224.082C269.6 224.279 269.53 224.475 269.762 224.568C270.444 224.834 270.352 225.366 270.294 225.933C270.201 226.789 270.144 227.646 270.086 228.502C270.016 229.393 271.162 230.422 272.087 230.353C275.258 230.11 278.439 229.855 281.61 229.659C283.738 229.52 285.879 229.485 288.019 229.393C292.15 229.208 296.292 228.976 300.423 228.849C305.34 228.687 310.257 228.907 315.186 228.675C319.224 228.479 323.285 228.363 327.335 228.421C330.077 228.467 332.819 228.398 335.561 228.351C339.194 228.282 342.827 227.923 346.472 228.108C348.636 228.212 350.799 228.317 352.963 228.455C353.657 228.502 353.969 228.27 353.923 227.541C353.888 226.998 353.9 226.454 353.981 225.91C354.259 223.92 354.374 221.907 354.363 219.905C354.328 214.768 354.201 209.631 354.131 204.494C354.108 202.862 354.201 201.231 354.154 199.611C354.074 196.707 354.282 193.803 353.865 191.176L353.854 191.199ZM303.35 60.9657C306.497 60.8847 309.436 61.9607 312.456 62.5508C312.699 62.5971 313.011 62.678 313.057 62.9557C313.208 63.7309 313.844 63.9045 314.434 64.1243C318.252 65.559 321.631 67.8152 325.056 69.9788C327.15 71.3094 329.059 72.9177 331.338 73.959C332.09 74.3061 332.842 74.6879 333.502 75.1854C337.493 78.1242 341.751 80.6697 346.102 83.0068C350.14 85.1705 353.877 87.7275 357.464 90.539C360.402 92.8415 363.538 94.8778 366.766 96.7406C368.779 97.8976 370.862 98.9621 372.759 100.27C375.825 102.375 378.799 104.62 382.062 106.448C384.445 107.79 386.736 109.329 388.981 110.903C392.787 113.564 396.536 116.329 400.47 118.805C401.164 119.245 401.719 119.21 402.414 118.805C403.918 117.949 404.855 116.583 405.873 115.276C407.169 113.621 407.852 111.608 409.159 109.931C410.409 108.322 409.946 106.471 408.372 105.175C407.505 104.458 406.741 103.648 405.954 102.85C405.549 102.433 405.191 101.982 404.519 102.445C404.161 102.688 403.929 102.364 403.733 102.109C403.351 101.635 403.062 101.068 402.61 100.686C400.528 98.9737 398.272 97.4695 396.305 95.6068C394.743 94.1258 392.845 93.1307 391.052 91.9621C388.819 90.5159 386.898 88.6994 384.827 87.0448C383.566 86.0266 382.397 84.8812 381.206 83.782C379.991 82.6597 378.926 81.3639 377.573 80.4035C375.316 78.7953 372.852 77.4879 370.746 75.6598C369.809 74.8383 368.941 73.9243 367.923 73.2185C365.852 71.7953 363.711 70.4648 361.571 69.1573C358.412 67.2136 355.589 64.807 352.731 62.4698C349.7 59.9822 346.703 57.4599 343.441 55.2731C340.93 53.5839 338.465 51.8484 336.244 49.7426C334.96 48.5277 333.664 47.255 332.009 46.503C330.274 45.7162 328.596 44.8137 326.826 44.0732C322.244 42.141 317.928 39.6418 313.335 37.7328C311.275 36.8766 309.204 35.9047 306.971 35.8005C303.604 35.6386 300.238 35.1642 296.836 35.4997C295.714 35.6154 294.58 35.9162 293.423 35.708C291.814 35.4187 290.357 35.87 288.933 36.5642C285.3 38.3344 282.153 40.8567 278.798 43.0435C275.431 45.2418 272.562 48.0881 269.38 50.5409C266.904 52.45 264.59 54.5558 261.882 56.1409C259.603 57.4715 257.266 58.6863 255.125 60.2599C251.828 62.6665 248.692 65.2582 245.626 67.9425C243.127 70.1177 240.744 72.4433 238.094 74.4218C233.582 77.8003 228.965 81.0399 224.441 84.4068C221.584 86.5357 218.749 88.6878 215.903 90.8283C215.174 91.3721 214.202 91.7307 213.785 92.5754C213.519 93.1076 213.172 93.42 212.732 93.7324C211.228 94.8084 209.736 95.9076 208.266 97.0183C207.965 97.2497 207.584 97.4464 207.769 98.0133C208.405 99.934 208.706 101.959 209.921 103.694C210.534 104.574 211.101 105.465 211.737 106.332C212.906 107.952 213.855 109.734 214.977 111.388C216.759 114.003 218.031 116.919 219.975 119.43C220.646 120.297 221.317 120.494 222.312 120.078C224.476 119.187 226.142 117.567 227.831 116.051C229.891 114.2 231.569 111.944 233.709 110.174C234.38 109.618 234.565 108.785 235.248 108.253C237.735 106.321 240.188 104.331 242.641 102.352C244.076 101.195 245.476 99.9803 246.922 98.8348C248.993 97.1919 251.215 95.7225 253.17 93.9638C256.93 90.5506 260.968 87.5192 265.087 84.5572C268.639 82.0118 272.076 79.316 275.454 76.5507C279.943 72.8829 284.19 68.9144 289.003 65.6516C291.664 63.8466 294.128 61.7756 297.542 61.4748C299.474 61.3012 301.395 61.0119 303.338 60.9772L303.35 60.9657ZM355.242 127.043C355.034 124.544 355.011 122.021 354.502 119.545C354.085 117.555 353.703 117.104 351.702 117.208C348.288 117.382 344.864 117.382 341.45 117.37C340.722 117.37 339.981 117.174 339.264 117.231C337.841 117.359 336.417 117.532 334.983 117.578C332.032 117.659 329.082 117.81 326.166 118.365C323.1 118.944 319.999 119.337 316.864 119.291C315.973 119.291 315.082 119.14 314.191 119.106C310.928 118.978 307.689 119.268 304.449 119.499C302.193 119.661 299.937 119.812 297.692 120.124C293.747 120.679 289.79 121.107 285.81 121.212C283.704 121.269 281.61 120.922 279.515 120.864C276.461 120.795 273.418 121.223 270.363 121.501C269.334 121.593 268.639 122.496 267.54 122.496C266.8 122.496 266.025 122.577 265.261 122.704C264.382 122.854 264.162 123.34 264.115 124.069C264.058 125.157 264.312 126.256 264.22 127.309C264 129.808 264.358 132.261 264.497 134.737C264.729 138.983 265.307 143.218 265.261 147.487C265.249 149.003 265.33 149.119 266.823 148.911C269.091 148.61 271.358 148.263 273.615 147.881C277.421 147.233 281.274 147.013 285.127 146.886C287.487 146.805 289.871 146.932 292.231 147.025C296.026 147.163 299.821 147.349 303.628 147.187C306.208 147.082 308.776 146.712 311.345 146.654C315.128 146.562 318.923 146.596 322.707 146.654C324.141 146.677 325.599 146.666 326.988 146.886C333.016 147.788 339.067 147.592 345.118 147.603C345.373 147.603 345.639 147.592 345.882 147.638C348.323 148.135 350.741 147.823 353.183 147.522C354.305 147.383 354.444 146.909 354.478 145.925C354.536 143.496 354.247 141.078 354.259 138.648C354.259 138.185 354.259 137.583 354.756 137.525C355.52 137.433 355.404 136.982 355.404 136.519C355.404 133.36 355.485 130.202 355.219 127.043H355.242ZM319.305 117.428C321.712 117.578 324.037 117.012 326.398 116.653C326.745 116.595 327.254 116.514 326.86 115.924C326.236 114.975 325.692 113.957 324.836 113.17C323.598 112.025 322.267 110.983 321.041 109.815C319.71 108.542 318.275 107.35 316.76 106.298C314.446 104.689 312.583 102.665 310.824 100.501C308.996 98.2448 307.156 96.0001 305.085 93.9638C304.634 93.5241 304.403 93.5473 304.102 94.0795C303.408 95.2944 302.667 96.4861 301.961 97.701C300.897 99.5175 299.474 101.091 298.363 102.884C296.813 105.407 295.332 107.975 293.793 110.498C292.289 112.974 290.762 115.45 289.2 117.879C288.899 118.354 289.003 118.747 289.13 119.14C289.269 119.592 289.743 119.383 290.044 119.36C291.444 119.256 292.833 119.094 294.221 118.955C296.905 118.678 299.578 118.215 302.274 117.983C303.732 117.856 305.201 117.868 306.659 117.729C308.811 117.532 310.963 117.301 313.138 117.359C315.186 117.417 317.246 117.706 319.305 117.44V117.428ZM214.341 213.518C214.503 215.856 214.225 217.892 214.155 219.928C214.121 221.004 214.04 222.092 213.97 223.168C213.936 223.665 213.716 224.117 213.218 224.313C212.721 224.522 212.385 224.244 212.084 223.862C211.934 223.677 211.691 223.55 211.471 223.422C210.048 222.613 208.521 222.115 206.901 221.791C206.01 221.606 206.056 221.895 206.207 222.532C206.716 224.695 207.075 226.905 207.746 229.011C208.428 231.151 207.838 233.65 209.678 235.479C210.071 235.872 210.337 235.964 210.777 235.918C213.623 235.617 216.469 235.282 219.316 235.004C220.531 234.888 220.681 234.784 220.774 233.558C220.936 231.464 221.132 229.369 221.248 227.275C221.387 224.857 221.433 222.427 221.537 220.009C221.56 219.465 221.375 219.257 220.797 219.153C219.721 218.968 218.795 218.436 217.974 217.66C216.701 216.457 215.648 215.057 214.329 213.507L214.341 213.518Z" fill="black" stroke="black"/>
<path d="M242.236 272.42C237.874 272.258 233.616 272.015 229.37 271.286C226.79 270.847 224.221 270.534 221.803 269.458C221.294 269.227 220.716 269.134 220.126 269.111C218.679 269.03 218.054 268.232 218.321 266.809C218.714 264.68 219.235 262.586 220.195 260.619C221.028 258.895 221.919 257.205 222.706 255.458C223.192 254.382 223.504 253.237 224.418 252.415C225.806 251.166 227.403 250.252 229.139 249.569C231.58 248.62 234.044 247.579 236.694 247.729C238.592 247.834 240.501 248.007 242.375 247.822C247.107 247.359 251.596 248.69 256.167 249.442C257.127 249.604 258.053 250.02 258.99 250.333C259.441 250.483 259.649 250.865 259.927 251.235C260.864 252.496 260.748 254.151 261.581 255.435C262.924 257.529 263.919 259.809 265.064 262.007C265.469 262.771 265.376 263.557 265.249 264.344C264.648 268.174 261.443 270.291 257.902 271.217C255.681 271.795 253.355 271.691 251.064 271.842C248.114 272.038 245.163 272.304 242.271 272.42H242.236ZM260.158 256.754C259.545 257.68 258.608 258.177 257.613 258.675C254.096 260.422 250.324 261 246.482 260.943C243.59 260.896 240.709 260.896 237.816 261.139C236.393 261.255 234.958 261.544 233.524 261.394C232.101 261.255 230.666 261.139 229.266 260.838C227.426 260.433 225.436 260.341 223.932 258.964C223.226 258.316 222.926 258.652 222.636 259.334C221.815 261.301 220.97 263.257 220.461 265.339C220.021 267.144 219.998 267.133 221.792 267.607C223.782 268.139 225.656 269.053 227.739 269.308C231.811 269.805 235.861 270.557 239.992 270.523C242.039 270.511 244.087 270.569 246.135 270.476C248.334 270.372 250.52 270.06 252.707 269.967C255.565 269.852 258.319 269.585 260.841 268C262.738 266.809 264.023 264.09 263.213 262.389C262.299 260.468 261.431 258.524 260.158 256.754ZM234.449 249.719C234.322 249.719 234.183 249.719 234.068 249.754C231.754 250.391 229.463 251.085 227.415 252.357C226.686 252.809 225.899 253.202 225.402 253.943C225.159 254.301 224.73 254.695 225.008 255.123C225.321 255.597 225.864 255.956 226.478 255.898C228.34 255.701 230.192 255.458 232.054 255.227C234.241 254.949 236.451 254.799 238.626 255.25C241.206 255.782 243.763 255.4 246.332 255.25C248.461 255.123 250.578 255.007 252.696 255.285C254.339 255.493 255.981 255.678 257.578 256.118C257.844 256.187 258.226 256.361 258.434 255.956C259.302 254.324 259.267 252.034 256.977 251.524C254.801 251.038 252.626 250.634 250.451 250.159C246.517 249.291 242.572 249.558 238.603 249.858C237.342 249.951 235.988 251.027 234.75 249.754C234.704 249.708 234.565 249.754 234.473 249.754L234.449 249.719ZM255.889 257.506C253.367 256.847 250.96 256.731 248.553 256.766C245.464 256.812 242.398 257.437 239.309 257.02C238.175 256.87 237.041 256.662 235.896 256.627C232.691 256.534 229.555 257.275 226.373 257.437C226.154 257.448 225.795 257.437 225.772 257.772C225.737 258.166 226.096 258.177 226.362 258.27C229.243 259.346 232.263 259.566 235.306 259.554C237.631 259.554 239.934 259.103 242.271 259.161C244.122 259.207 245.985 259.219 247.836 259.161C250.555 259.068 253.216 258.675 255.912 257.483L255.889 257.506Z" fill="black" stroke="black"/>
<path d="M290.854 271.035C285.555 270.943 280.302 270.445 275.13 269.312C273.522 268.953 272.064 268.154 270.352 268.062C269.16 268.004 268.79 267.217 269.033 265.875C269.438 263.677 270.016 261.536 270.965 259.5C271.89 257.51 272.92 255.555 273.718 253.507C274.355 251.864 275.836 251.1 277.247 250.302C279.654 248.948 282.223 247.999 284.942 247.548C285.798 247.409 286.712 247.664 287.545 247.675C288.818 247.698 290.125 247.849 291.398 247.617C293.434 247.247 295.424 247.293 297.46 247.641C300.064 248.092 302.679 248.462 305.259 248.971C306.138 249.145 306.902 249.631 307.804 249.723C308.128 249.758 308.302 250.174 308.522 250.452C309.378 251.493 309.378 252.87 309.945 253.993C311.113 256.295 312.49 258.482 313.624 260.796C313.913 261.374 314.11 261.941 313.902 262.612C313.636 263.457 313.636 264.394 313.219 265.193C311.796 267.877 309.366 269.207 306.555 269.844C303.593 270.526 300.538 270.33 297.53 270.654C295.308 270.885 293.087 271.14 290.842 271.035H290.854ZM308.88 255.925C308.267 256.688 307.561 257.279 306.612 257.764C303.604 259.292 300.388 259.859 297.125 260.044C293.596 260.24 290.044 260.044 286.504 260.426C284.074 260.692 281.598 260.541 279.18 260.067C277.386 259.72 275.489 259.558 274.077 258.146C273.718 257.788 273.545 257.996 273.383 258.355C272.538 260.275 271.59 262.15 271.15 264.232C270.745 266.153 270.699 266.164 272.515 266.627C274.239 267.067 275.871 267.819 277.664 268.027C280.533 268.374 283.391 268.849 286.284 269.045C289.153 269.242 292.023 269.265 294.892 269.115C297.715 268.976 300.538 268.606 303.361 268.409C305.745 268.235 308.012 267.888 309.968 266.315C310.963 265.516 311.634 264.568 311.969 263.388C312.108 262.902 312.398 262.358 312.097 261.814C311.021 259.87 310.338 257.707 308.88 255.936V255.925ZM307.712 253.31C307.712 252.257 306.96 251.262 306.034 251.054C301.383 250.001 296.755 248.867 291.895 249.295C289.732 249.48 287.568 249.515 285.485 250.174C284.988 250.336 284.432 250.464 284.062 250.012C283.715 249.596 283.38 249.654 282.963 249.781C280.95 250.394 278.983 251.158 277.201 252.303C276.495 252.755 275.871 253.287 275.442 254.027C275.257 254.34 275.165 254.675 275.523 254.86C275.975 255.08 276.414 255.404 276.958 255.335C278.057 255.196 279.156 254.988 280.256 254.872C282.408 254.641 284.583 254.097 286.735 254.444C290.183 255.011 293.584 254.641 297.009 254.432C298.594 254.34 300.191 254.305 301.788 254.525C303.361 254.733 304.935 254.988 306.497 255.265C306.936 255.346 307.26 255.207 307.33 254.849C307.434 254.293 307.55 253.738 307.723 253.322L307.712 253.31ZM304.692 256.746C304.055 256.284 303.442 256.445 302.887 256.341C300.874 255.936 298.814 255.994 296.778 256.122C294.556 256.26 292.335 256.515 290.113 256.445C288.621 256.399 287.14 256.179 285.647 256.064C283.785 255.913 281.968 256.341 280.128 256.503C278.786 256.619 277.456 256.897 276.102 257.105C276.195 257.579 276.507 257.602 276.773 257.683C279.758 258.609 282.836 259.107 285.937 258.76C289.523 258.355 293.099 258.308 296.697 258.308C299.439 258.308 302.042 257.66 304.715 256.758L304.692 256.746Z" fill="black" stroke="black"/>
<path d="M342.677 188.249C340.397 188.434 339.136 186.606 339.761 184.072C340.166 182.44 341.462 181.388 342.862 180.682C344.551 179.826 346.807 181.272 347.073 183.192C347.374 185.472 344.968 188.249 342.677 188.249ZM341.358 185.183C341.335 186.027 341.485 186.224 342.272 186.397C343.706 186.721 345.639 184.87 345.326 183.435C345.199 182.857 344.84 182.371 344.25 182.186C343.683 182.001 343.371 182.429 343.047 182.788C342.584 183.308 342.133 183.852 341.659 184.361C341.416 184.616 341.335 184.905 341.358 185.194V185.183Z" fill="black" stroke="black"/>
<path d="M285.996 134.538C286.771 135.476 287.766 135.534 288.645 134.666C289.062 134.249 289.421 133.763 289.814 133.324C290.508 132.56 291.11 132.537 291.85 133.243C292.232 133.601 292.568 134.018 293.042 134.272C293.806 134.677 294.419 134.573 294.997 133.925C295.171 133.729 295.31 133.497 295.495 133.3C296.016 132.745 296.478 132.71 297.045 133.185C297.3 133.393 297.52 133.648 297.763 133.867C298.191 134.249 298.665 134.55 299.221 134.677C299.741 134.805 300.204 134.677 300.551 134.249C300.887 133.833 301.037 133.428 300.806 132.884C300.181 131.461 299.487 130.072 298.561 128.811C298.156 128.256 297.682 127.724 297.103 127.33C296.397 126.844 295.773 126.948 295.31 127.643C294.743 128.487 294.523 129.436 294.43 130.258C294.43 130.686 294.43 130.894 294.268 131.102C294.083 131.38 293.829 130.882 293.702 130.651C293.516 130.304 293.354 129.945 293.169 129.586C292.822 128.904 292.394 128.279 291.85 127.735C290.369 126.254 288.576 126.173 287.002 127.562C285.996 128.453 285.267 129.552 284.677 130.743C284.503 131.079 284.445 131.426 284.573 131.796C284.908 132.768 285.325 133.705 285.984 134.504L285.996 134.538Z" fill="black"/>
<path d="M301.431 134.572C300.135 135.694 299.637 135.972 297.751 134.792C297.393 134.572 297.08 134.248 296.779 133.947C296.444 133.612 296.155 133.612 295.888 134.005C295.807 134.109 295.738 134.225 295.646 134.318C294.789 135.324 293.679 135.498 292.545 134.815C292.117 134.549 291.781 134.19 291.434 133.832C290.96 133.334 290.74 133.346 290.3 133.855C289.849 134.375 289.421 134.931 288.9 135.394C288.217 136.007 287.442 136.099 286.586 135.81C286.031 135.625 285.637 135.255 285.29 134.792C284.781 134.109 284.457 133.323 284.087 132.582C283.994 132.617 283.948 132.617 283.936 132.64C283.092 134.491 282.698 136.47 282.34 138.448C282.236 139.05 282.421 139.223 283.046 139.258C283.936 139.304 284.827 139.304 285.718 139.327C288.426 139.397 291.133 139.2 293.841 139.119C296.479 139.038 299.128 139.073 301.778 139.05C301.94 139.05 302.113 139.05 302.275 139.05C302.726 139.05 302.854 138.818 302.726 138.402C302.356 137.141 302.009 135.856 301.419 134.572H301.431Z" fill="black"/>
<path d="M318.867 131.854C318.358 128.325 315.396 125.953 311.624 125.965C307.991 125.965 304.624 128.325 303.351 131.738C301.859 135.73 303.999 139.884 308.13 140.867C311.601 141.7 314.54 140.578 316.888 137.986C318.45 136.274 319.202 134.203 318.855 131.854H318.867ZM308.396 134.99C308.361 134.828 308.361 134.643 308.512 134.538C308.685 134.411 308.835 134.515 308.928 134.654C309.31 135.209 309.865 135.337 310.502 135.302C311.138 135.267 311.682 135.128 311.948 134.469C312.04 134.249 312.168 134.018 312.457 134.145C312.758 134.272 312.758 134.55 312.688 134.828C312.607 135.163 312.387 135.406 312.098 135.603C311.589 135.95 311.011 136.077 310.409 136.135C309.911 136.112 309.426 136.019 308.997 135.753C308.708 135.58 308.477 135.348 308.396 135.001V134.99ZM307.32 132.953C306.95 132.919 306.637 132.583 306.649 132.224C306.66 131.796 307.088 131.391 307.493 131.414C307.864 131.438 308.188 131.796 308.164 132.143C308.141 132.583 307.713 132.988 307.32 132.953ZM312.538 131.218C312.966 131.218 313.336 131.553 313.348 131.924C313.359 132.363 312.978 132.768 312.549 132.768C312.145 132.768 311.809 132.421 311.809 131.993C311.809 131.553 312.133 131.206 312.538 131.206V131.218Z" fill="black"/>
<path d="M333.711 135.717C332.6 135.625 331.952 135.069 331.675 133.993C331.582 133.623 331.513 133.241 331.559 132.871C331.709 131.564 331.883 130.268 332.045 128.972C332.08 128.74 332.137 128.509 332.288 128.324C332.334 128.266 332.438 128.22 332.508 128.231C332.577 128.231 332.67 128.336 332.681 128.393C332.704 128.532 332.704 128.683 332.681 128.821C332.566 129.978 332.45 131.147 332.334 132.304C332.288 132.744 332.265 133.183 332.334 133.612C332.473 134.468 332.947 134.896 333.804 134.954C334.266 134.988 334.741 134.954 335.204 134.977C335.273 134.977 335.331 134.977 335.389 134.977C335.504 133.878 335.562 132.79 335.539 131.714C335.539 131.124 335.539 130.626 335.539 130.129C335.516 129.342 335.389 128.567 335.157 127.803C334.914 126.982 334.394 126.438 333.537 126.253C332.878 126.114 332.23 125.94 331.57 125.871C329.384 125.64 327.197 125.698 325.033 125.964C323.992 126.091 322.951 126.264 321.967 126.623C321.493 126.797 321.076 126.889 320.544 126.704C319.838 126.461 319.283 127.098 319.503 127.826C319.561 128.012 319.653 128.208 319.78 128.359C320.012 128.625 320.047 128.902 320 129.25C319.885 130.059 319.919 130.881 319.954 131.691C320 132.674 320.336 133.045 321.308 133.207C321.562 133.253 321.828 133.276 322.095 133.288C323.402 133.345 324.709 133.357 326.017 133.183C327.509 132.975 327.521 133.033 327.174 134.468C326.757 136.238 326.503 138.02 326.561 139.836C326.595 140.773 326.919 141.248 327.822 141.329C329.268 141.456 330.703 141.711 332.161 141.78C333.237 141.826 333.873 141.375 334.289 140.473C334.428 140.16 334.567 139.825 334.637 139.489C334.903 138.251 335.134 137.013 335.296 135.764C335.238 135.764 335.18 135.752 335.111 135.752C334.648 135.729 334.174 135.752 333.711 135.729V135.717ZM328.666 129.689C328.435 129.874 328.18 130.025 327.868 129.886C327.59 129.759 327.44 129.458 327.452 129.088C327.463 128.602 327.833 128.139 328.261 128.069C328.597 128.012 328.817 128.174 328.967 128.451C329.199 128.891 329.094 129.342 328.666 129.689Z" fill="black"/>
<path d="M384.961 36.1174C382.071 36.2696 379.191 36.3301 376.297 36.0687C375.226 35.9711 374.117 36.1077 373.04 36.2482C370.636 36.5584 368.238 36.898 365.804 36.7302C363.652 36.5819 361.622 37.0209 359.653 37.8756C358.079 38.5586 356.473 39.1674 354.874 39.7977C352.767 40.6289 350.616 41.3783 349.161 43.2867C349.073 43.3998 348.729 43.3686 348.524 43.3198C348.423 43.2964 348.314 43.0896 348.296 42.9549C348.269 42.7286 348.286 42.4866 348.333 42.2603C348.811 39.9733 349.403 37.7136 349.635 35.3701C349.771 33.9924 350.267 32.6499 350.605 31.2918C351.016 29.6312 351.487 27.9823 351.836 26.3081C352.458 23.3088 353.514 20.456 354.744 17.6695C356.176 14.4185 358.644 12.0535 361.542 10.11C363.909 8.52159 366.557 7.58104 369.334 7.02686C372.626 6.36926 375.871 5.54774 379.113 4.66184C382.647 3.69787 386.237 2.88221 389.851 2.29486C392.222 1.90849 394.679 2.03338 397.097 1.94362C398.968 1.87337 400.844 1.88508 402.711 1.75824C408.78 1.35041 414.693 1.93972 420.477 3.97301C424.45 5.37017 426.711 8.11376 427.972 12.0028C429.229 15.8781 428.893 19.531 426.987 23.0903C426.323 24.3294 425.72 25.5997 425.07 26.8447C423.698 29.4692 421.538 31.2703 418.767 32.1152C415.339 33.1612 411.855 34.0959 408.333 34.7339C405.582 35.2315 402.738 35.2471 399.932 35.3993C394.943 35.6706 389.951 35.8813 384.959 36.1174H384.961ZM350.16 40.4397C353.339 39.1596 356.391 37.981 359.4 36.7048C361.527 35.8033 363.699 35.4052 366.009 35.4598C367.877 35.5047 369.767 35.4637 371.613 35.2159C373.327 34.9857 375.021 34.9018 376.744 34.9154C380.1 34.9408 383.46 34.9583 386.815 34.8315C391.727 34.6461 396.632 34.1544 401.544 34.1134C407.254 34.0666 412.659 32.5894 418.071 31.1103C420.721 30.3864 422.764 28.6789 424.067 26.2007C424.758 24.8875 425.384 23.543 426.081 22.2337C428.109 18.4168 427.9 14.5356 426.239 10.711C425.154 8.20937 423.437 6.20535 420.678 5.36432C420.455 5.29602 420.25 5.16918 420.03 5.09308C414.65 3.21979 409.135 2.4256 403.441 2.95051C402.044 3.0793 400.635 3.10467 399.23 3.12613C397.2 3.15735 395.165 3.07344 393.139 3.16906C391.664 3.23736 390.187 3.45005 388.733 3.71739C386.817 4.07058 384.92 4.52914 383.019 4.96234C381.499 5.30968 379.983 5.67458 378.471 6.05509C376.732 6.49219 375.005 6.98198 373.264 7.40347C371.37 7.86398 369.434 8.1723 367.568 8.72257C361.515 10.5139 357.154 14.1766 354.943 20.2374C353.815 23.3284 352.968 26.472 352.353 29.7014C351.768 32.7631 350.987 35.7896 350.316 38.8357C350.207 39.3333 350.216 39.8562 350.164 40.4397H350.16Z" fill="black" stroke="black" stroke-width="1.5"/>
<path d="M377.833 21.0093C377.833 21.9651 377.055 22.7451 376.089 22.7451C375.123 22.7451 374.345 21.9651 374.345 21.0093C374.345 20.0534 375.123 19.2734 376.089 19.2734C377.055 19.2734 377.833 20.0534 377.833 21.0093Z" fill="black" stroke="black" stroke-width="2"/>
<path d="M391.741 20.2085C391.741 21.1643 390.963 21.9443 389.997 21.9443C389.031 21.9443 388.253 21.1643 388.253 20.2085C388.253 19.2526 389.031 18.4727 389.997 18.4727C390.963 18.4727 391.741 19.2526 391.741 20.2085Z" fill="black" stroke="black" stroke-width="2"/>
<path d="M405.648 19.4077C405.648 20.3636 404.87 21.1435 403.904 21.1435C402.938 21.1435 402.16 20.3636 402.16 19.4077C402.16 18.4518 402.938 17.6719 403.904 17.6719C404.87 17.6719 405.648 18.4518 405.648 19.4077Z" fill="black" stroke="black" stroke-width="2"/>
</g>
<defs>
<clipPath id="clip0_4250_61068">
<rect width="598" height="274" fill="white"/>
</clipPath>
</defs>
</svg>
