<svg width="16" height="16" viewBox="0 0 16 16" fill="none" xmlns="http://www.w3.org/2000/svg">
<path d="M8.0021 14.4974C8.75695 14.4974 9.48507 14.3734 10.1865 14.1256C10.8878 13.8777 11.5329 13.5075 12.1216 13.015C11.5083 12.6079 10.8536 12.3019 10.1575 12.0967C9.46135 11.8916 8.74314 11.789 8.00283 11.789C7.26253 11.789 6.53821 11.8854 5.82987 12.0783C5.12154 12.2711 4.47303 12.5834 3.88435 13.015C4.47303 13.5075 5.11778 13.8777 5.8186 14.1256C6.51944 14.3734 7.24727 14.4974 8.0021 14.4974ZM10.2385 8.15281L9.45169 7.36598C9.54784 7.23884 9.61515 7.09995 9.6536 6.94931C9.69208 6.79866 9.71131 6.64801 9.71131 6.49738C9.71131 6.02729 9.54411 5.62504 9.20971 5.29063C8.87529 4.95622 8.47304 4.78902 8.00296 4.78902C7.85232 4.78902 7.70167 4.80826 7.55102 4.84673C7.40038 4.88519 7.26149 4.95249 7.13435 5.04865L6.34752 4.26181C6.59313 4.0834 6.85742 3.94611 7.14038 3.84996C7.42333 3.75381 7.71203 3.70573 8.00648 3.70573C8.77928 3.70573 9.43717 3.97722 9.98015 4.52019C10.5231 5.06316 10.7946 5.72105 10.7946 6.49385C10.7946 6.7883 10.7465 7.077 10.6504 7.35996C10.5542 7.64292 10.4169 7.9072 10.2385 8.15281ZM14.3026 12.2169L13.5158 11.4301C13.8352 10.9108 14.0796 10.362 14.249 9.7834C14.4183 9.20484 14.503 8.6095 14.503 7.99738C14.503 6.19182 13.871 4.6571 12.6071 3.39321C11.3432 2.12932 9.80851 1.49738 8.00296 1.49738C7.39083 1.49738 6.79549 1.58204 6.21694 1.75138C5.63838 1.92072 5.08949 2.16512 4.57027 2.48456L3.78344 1.69771C4.4127 1.27143 5.08491 0.950924 5.80006 0.736188C6.5152 0.521438 7.2495 0.414062 8.00296 0.414062C9.05643 0.414062 10.0405 0.611459 10.955 1.00625C11.8696 1.40104 12.6727 1.94427 13.3644 2.63594C14.0561 3.3276 14.5993 4.13073 14.9941 5.04531C15.3889 5.95988 15.5863 6.9439 15.5863 7.99738C15.5863 8.75083 15.4789 9.48513 15.2641 10.2003C15.0494 10.9154 14.7289 11.5876 14.3026 12.2169ZM7.99988 15.5807C6.95626 15.5807 5.97553 15.383 5.05767 14.9877C4.13979 14.5924 3.33483 14.049 2.64279 13.3575C1.95074 12.666 1.4072 11.8609 1.01219 10.9422C0.61716 10.0235 0.419646 9.04192 0.419646 7.99738C0.419646 7.18107 0.548389 6.38779 0.805875 5.61752C1.06336 4.84724 1.43836 4.13679 1.93087 3.48615L0.382812 1.91725L1.14881 1.15123L15.0334 15.0358L14.2674 15.8018L2.70169 4.25696C2.30745 4.80825 2.0091 5.398 1.80665 6.02621C1.60419 6.65442 1.50296 7.31147 1.50296 7.99738C1.50296 8.78142 1.63303 9.53619 1.89319 10.2617C2.15334 10.9872 2.55051 11.64 3.08471 12.2201C3.81868 11.7244 4.5991 11.3481 5.42598 11.0911C6.25284 10.8342 7.10948 10.7057 7.9959 10.7057C8.62134 10.7057 9.22813 10.7803 9.81627 10.9293C10.4044 11.0783 10.9736 11.2843 11.5238 11.5471L13.3523 13.3756C12.645 14.0882 11.8287 14.6338 10.9032 15.0126C9.97782 15.3913 9.01003 15.5807 7.99988 15.5807Z" fill="#707070"/>
</svg>
