<svg width="16" height="16" viewBox="0 0 16 16" fill="none" xmlns="http://www.w3.org/2000/svg">
<path d="M3.07912 12.2201C3.82912 11.7084 4.61117 11.3281 5.42527 11.0791C6.23937 10.8302 7.09674 10.7057 7.99738 10.7057C8.89801 10.7057 9.75538 10.8302 10.5695 11.0791C11.3836 11.3281 12.1656 11.7084 12.9156 12.2201C13.4338 11.6507 13.827 11.0054 14.0951 10.2843C14.3633 9.56308 14.4974 8.80079 14.4974 7.99738C14.4974 6.19633 13.8638 4.66274 12.5968 3.39658C11.3297 2.13044 9.79496 1.49738 7.99258 1.49738C6.19022 1.49738 4.6571 2.13044 3.39321 3.39658C2.12932 4.66274 1.49738 6.19633 1.49738 7.99738C1.49738 8.80079 1.63146 9.56308 1.89963 10.2843C2.16779 11.0054 2.56096 11.6507 3.07912 12.2201ZM7.99762 9.28902C7.22289 9.28902 6.56389 9.01747 6.02063 8.47438C5.47736 7.93126 5.20573 7.27235 5.20573 6.49763C5.20573 5.72289 5.47728 5.06389 6.02038 4.52063C6.56349 3.97736 7.2224 3.70573 7.99713 3.70573C8.77186 3.70573 9.43086 3.97728 9.97412 4.52038C10.5174 5.06349 10.789 5.7224 10.789 6.49713C10.789 7.27186 10.5175 7.93086 9.97437 8.47413C9.43126 9.01739 8.77235 9.28902 7.99762 9.28902ZM8.00313 15.5807C6.95549 15.5807 5.97094 15.3844 5.04948 14.9917C4.12801 14.5991 3.32138 14.0569 2.6296 13.3651C1.93784 12.6734 1.39565 11.867 1.00302 10.9461C0.610382 10.0253 0.414062 9.03915 0.414062 7.98783C0.414062 6.9365 0.610382 5.95358 1.00302 5.03906C1.39565 4.12453 1.93784 3.32138 2.6296 2.6296C3.32138 1.93784 4.12772 1.39565 5.0486 1.00302C5.96949 0.610382 6.9556 0.414062 8.00692 0.414062C9.05825 0.414062 10.0412 0.610382 10.9557 1.00302C11.8702 1.39565 12.6734 1.93784 13.3651 2.6296C14.0569 3.32138 14.5991 4.12609 14.9917 5.04373C15.3844 5.96137 15.5807 6.944 15.5807 7.99163C15.5807 9.03926 15.3844 10.0238 14.9917 10.9453C14.5991 11.8667 14.0569 12.6734 13.3651 13.3651C12.6734 14.0569 11.8687 14.5991 10.951 14.9917C10.0334 15.3844 9.05075 15.5807 8.00313 15.5807ZM7.99738 14.4974C8.73563 14.4974 9.46078 14.3694 10.1729 14.1136C10.8849 13.8577 11.5326 13.4915 12.116 13.015C11.5188 12.624 10.8721 12.3219 10.1761 12.1088C9.48002 11.8956 8.75379 11.789 7.99738 11.789C7.24096 11.789 6.50992 11.8908 5.80425 12.0943C5.09858 12.2978 4.45676 12.6047 3.87877 13.015C4.4621 13.4915 5.10981 13.8577 5.8219 14.1136C6.53397 14.3694 7.25912 14.4974 7.99738 14.4974ZM7.99738 8.20573C8.46746 8.20573 8.86971 8.03853 9.20413 7.70413C9.53853 7.36971 9.70573 6.96746 9.70573 6.49738C9.70573 6.02729 9.53853 5.62504 9.20413 5.29063C8.86971 4.95622 8.46746 4.78902 7.99738 4.78902C7.52729 4.78902 7.12504 4.95622 6.79062 5.29063C6.45622 5.62504 6.28902 6.02729 6.28902 6.49738C6.28902 6.96746 6.45622 7.36971 6.79062 7.70413C7.12504 8.03853 7.52729 8.20573 7.99738 8.20573Z" fill="#707070"/>
</svg>
