<svg width="16" height="16" viewBox="0 0 16 16" fill="none" xmlns="http://www.w3.org/2000/svg">
<path d="M0.414062 7.99877C0.414062 6.94549 0.611458 5.96144 1.00625 5.0466C1.40104 4.13176 1.94427 3.32841 2.63594 2.63656C3.3276 1.9447 4.1342 1.40132 5.05573 1.00642C5.97724 0.611515 6.95779 0.414062 7.99738 0.414062C8.30919 0.414062 8.61498 0.43089 8.91473 0.464542C9.21448 0.498209 9.50965 0.552966 9.80023 0.628813C9.67845 0.775175 9.57082 0.930883 9.47733 1.09594C9.38385 1.26101 9.29918 1.43381 9.22333 1.61435C9.03436 1.57483 8.83488 1.54545 8.62488 1.52623C8.41488 1.50699 8.20571 1.49738 7.99738 1.49738C6.19182 1.49738 4.6571 2.12932 3.39321 3.39321C2.12932 4.6571 1.49738 6.19182 1.49738 7.99738C1.49738 9.80293 2.12932 11.3377 3.39321 12.6015C4.6571 13.8654 6.19182 14.4974 7.99738 14.4974C9.80293 14.4974 11.3377 13.8654 12.6015 12.6015C13.8654 11.3377 14.4974 9.80293 14.4974 7.99738C14.4974 7.78904 14.4878 7.57988 14.4685 7.36988C14.4493 7.15988 14.4199 6.96039 14.3804 6.77142C14.5609 6.69557 14.7337 6.6109 14.8988 6.51742C15.0639 6.42393 15.2196 6.3163 15.3659 6.19452C15.4418 6.48511 15.4965 6.78027 15.5302 7.08002C15.5639 7.37977 15.5807 7.68556 15.5807 7.99738C15.5807 9.03696 15.3833 10.0175 14.9886 10.939C14.5939 11.8605 14.0508 12.6671 13.3592 13.3588C12.6677 14.0505 11.8647 14.5937 10.9503 14.9885C10.0359 15.3833 9.05205 15.5807 7.99877 15.5807C6.95938 15.5807 5.9788 15.3833 5.05702 14.9886C4.13523 14.5939 3.32841 14.0508 2.63656 13.3592C1.9447 12.6677 1.40132 11.8612 1.00642 10.9399C0.611514 10.0185 0.414062 9.03816 0.414062 7.99877ZM12.838 5.44929C12.2017 5.44929 11.6606 5.22658 11.2145 4.78117C10.7685 4.33575 10.5455 3.79489 10.5455 3.15858C10.5455 2.52228 10.7682 1.98111 11.2136 1.53506C11.659 1.08902 12.1999 0.866 12.8362 0.866C13.4725 0.866 14.0136 1.08871 14.4597 1.53413C14.9057 1.97953 15.1288 2.52039 15.1288 3.15671C15.1288 3.79301 14.906 4.33419 14.4606 4.78023C14.0152 5.22627 13.4744 5.44929 12.838 5.44929Z" fill="#707070"/>
</svg>
