<svg width="14" height="14" viewBox="0 0 14 14" fill="none" xmlns="http://www.w3.org/2000/svg">
<path d="M1.75381 13.5807C1.38842 13.5807 1.07378 13.4487 0.809896 13.1849C0.546007 12.921 0.414062 12.6063 0.414062 12.2409V1.75381C0.414062 1.3787 0.546007 1.06163 0.809896 0.802605C1.07378 0.543577 1.38842 0.414062 1.75381 0.414062H12.2409C12.616 0.414062 12.9331 0.543577 13.1921 0.802605C13.4512 1.06163 13.5807 1.3787 13.5807 1.75381V12.2409C13.5807 12.6063 13.4512 12.921 13.1921 13.1849C12.9331 13.4487 12.616 13.5807 12.2409 13.5807H1.75381ZM2.49738 7.98138L5.49738 4.98138L8.49738 7.98138L11.4974 4.98138L12.4974 5.98138V1.75381C12.4974 1.67902 12.4733 1.61758 12.4253 1.5695C12.3772 1.52142 12.3157 1.49738 12.2409 1.49738H1.75381C1.67902 1.49738 1.61758 1.52142 1.5695 1.5695C1.52142 1.61758 1.49737 1.67902 1.49737 1.75381V6.98138L2.49738 7.98138ZM1.75381 12.4974H12.2409C12.3157 12.4974 12.3772 12.4733 12.4253 12.4253C12.4733 12.3772 12.4974 12.3157 12.4974 12.2409V7.5214L11.4974 6.5214L8.49738 9.5214L5.49738 6.5214L2.49738 9.5214L1.49737 8.5214V12.2409C1.49737 12.3157 1.52142 12.3772 1.5695 12.4253C1.61758 12.4733 1.67902 12.4974 1.75381 12.4974ZM1.49737 12.4974V7.2089V8.10469V1.49738V12.4974Z" fill="#707070"/>
</svg>
