<svg width="16" height="15" viewBox="0 0 16 15" fill="none" xmlns="http://www.w3.org/2000/svg">
<path d="M3.02944 12.5807L1.55113 14.059C1.3401 14.27 1.09783 14.3182 0.824333 14.2036C0.550819 14.089 0.414062 13.8824 0.414062 13.5839V1.75381C0.414062 1.3787 0.543576 1.06163 0.802604 0.802605C1.06163 0.543577 1.3787 0.414062 1.75381 0.414062H14.2409C14.616 0.414062 14.9331 0.543577 15.1921 0.802605C15.4512 1.06163 15.5807 1.3787 15.5807 1.75381V11.2409C15.5807 11.6161 15.4512 11.9331 15.1921 12.1921C14.9331 12.4512 14.616 12.5807 14.2409 12.5807H3.02944ZM14.2409 11.4974C14.305 11.4974 14.3638 11.4707 14.4173 11.4173C14.4707 11.3638 14.4974 11.305 14.4974 11.2409V1.75381C14.4974 1.6897 14.4707 1.63093 14.4173 1.5775C14.3638 1.52408 14.305 1.49738 14.2409 1.49738H12.9493V7.09671C12.9493 7.21957 12.8969 7.31653 12.7923 7.38758C12.6875 7.45863 12.578 7.4621 12.4637 7.398L11.3756 6.86594C11.3083 6.83497 11.2356 6.81948 11.1576 6.81948C11.0797 6.81948 11.007 6.83497 10.9397 6.86594L9.85156 7.398C9.73724 7.4621 9.62774 7.45863 9.52304 7.38758C9.41835 7.31653 9.366 7.21957 9.366 7.09671V1.49738H1.75381C1.6897 1.49738 1.63093 1.52408 1.5775 1.5775C1.52408 1.63093 1.49738 1.6897 1.49738 1.75381V12.5887L2.58073 11.4974H14.2409Z" fill="#707070"/>
</svg>
