<svg width="14" height="16" viewBox="0 0 14 16" fill="none" xmlns="http://www.w3.org/2000/svg">
<path d="M1.99737 15.5807C1.55401 15.5807 1.17928 15.4276 0.873187 15.1216C0.567104 14.8155 0.414062 14.4407 0.414062 13.9974V12.4333C0.414062 12.0648 0.54525 11.7494 0.807625 11.4871C1.06999 11.2247 1.38538 11.0935 1.75381 11.0935H2.41406V1.75381C2.41406 1.38538 2.54525 1.06999 2.80762 0.807626C3.06999 0.545251 3.38538 0.414062 3.75381 0.414062H12.2409C12.6094 0.414062 12.9248 0.545251 13.1871 0.807626C13.4495 1.06999 13.5807 1.38538 13.5807 1.75381V13.7474C13.5807 14.2602 13.4033 14.6939 13.0486 15.0486C12.6939 15.4033 12.2602 15.5807 11.7474 15.5807H1.99737ZM11.743 14.4974C11.9542 14.4974 12.1328 14.4255 12.2786 14.2818C12.4245 14.138 12.4974 13.9599 12.4974 13.7474V1.75381C12.4974 1.67902 12.4733 1.61758 12.4253 1.5695C12.3772 1.52142 12.3157 1.49738 12.2409 1.49738H3.75381C3.67902 1.49738 3.61758 1.52142 3.5695 1.5695C3.52142 1.61758 3.49738 1.67902 3.49738 1.75381V11.0935H9.65765C10.0261 11.0935 10.3415 11.2247 10.6038 11.4871C10.8662 11.7494 10.9974 12.0648 10.9974 12.4333V13.7474C10.9974 13.9599 11.0688 14.138 11.2117 14.2818C11.3546 14.4255 11.5317 14.4974 11.743 14.4974ZM5.19929 5.24094C5.04582 5.24094 4.91718 5.18942 4.81337 5.0864C4.70956 4.98337 4.65765 4.8557 4.65765 4.7034C4.65765 4.55109 4.70956 4.42206 4.81337 4.31629C4.91718 4.21053 5.04582 4.15765 5.19929 4.15765H10.7955C10.9489 4.15765 11.0776 4.20916 11.1814 4.31219C11.2852 4.41522 11.3371 4.54288 11.3371 4.69519C11.3371 4.84749 11.2852 4.97653 11.1814 5.08229C11.0776 5.18806 10.9489 5.24094 10.7955 5.24094H5.19929ZM5.19929 7.64479C5.04582 7.64479 4.91718 7.59328 4.81337 7.49025C4.70956 7.38721 4.65765 7.25954 4.65765 7.10723C4.65765 6.95492 4.70956 6.82589 4.81337 6.72013C4.91718 6.61436 5.04582 6.56148 5.19929 6.56148H10.7955C10.9489 6.56148 11.0776 6.61299 11.1814 6.71602C11.2852 6.81905 11.3371 6.94672 11.3371 7.09902C11.3371 7.25133 11.2852 7.38037 11.1814 7.48615C11.0776 7.59191 10.9489 7.64479 10.7955 7.64479H5.19929ZM1.99737 14.4974H9.91406V12.4333C9.91406 12.3585 9.89003 12.297 9.84196 12.249C9.79387 12.2009 9.73244 12.1768 9.65765 12.1768H1.75381C1.67902 12.1768 1.61758 12.2009 1.5695 12.249C1.52142 12.297 1.49737 12.3585 1.49737 12.4333V13.9974C1.49737 14.139 1.54529 14.2578 1.64112 14.3536C1.73696 14.4495 1.85571 14.4974 1.99737 14.4974ZM1.99737 14.4974H1.49737H9.91406H1.99737Z" fill="#707070"/>
</svg>
