<svg width="16" height="16" viewBox="0 0 16 16" fill="none" xmlns="http://www.w3.org/2000/svg">
<path d="M7.99298 11.773C8.15884 11.773 8.29933 11.7169 8.41444 11.6047C8.52955 11.4925 8.5871 11.3535 8.5871 11.1876C8.5871 11.0218 8.53101 10.8813 8.41881 10.7662C8.30663 10.6511 8.16762 10.5935 8.00177 10.5935C7.83591 10.5935 7.69542 10.6496 7.58031 10.7618C7.4652 10.874 7.40765 11.013 7.40765 11.1789C7.40765 11.3447 7.46374 11.4852 7.57594 11.6003C7.68812 11.7154 7.82713 11.773 7.99298 11.773ZM7.45573 9.06148H8.53902V4.06148H7.45573V9.06148ZM8.00452 15.5807C6.9613 15.5807 5.9788 15.3833 5.05702 14.9886C4.13523 14.5939 3.32841 14.0508 2.63656 13.3592C1.9447 12.6677 1.40132 11.8615 1.00642 10.9408C0.611514 10.02 0.414062 9.03613 0.414062 7.98923C0.414062 6.94231 0.611424 5.96144 1.00615 5.0466C1.40087 4.13176 1.94399 3.32841 2.63552 2.63656C3.32706 1.9447 4.13322 1.40132 5.054 1.00642C5.97478 0.611515 6.95862 0.414062 8.00552 0.414062C9.05244 0.414062 10.0333 0.611425 10.9481 1.00615C11.863 1.40087 12.6663 1.94399 13.3582 2.63552C14.05 3.32706 14.5934 4.1316 14.9883 5.04913C15.3832 5.96665 15.5807 6.94702 15.5807 7.99023C15.5807 9.03345 15.3833 10.016 14.9886 10.9377C14.5939 11.8595 14.0508 12.6663 13.3592 13.3582C12.6677 14.05 11.8632 14.5934 10.9456 14.9883C10.0281 15.3832 9.04773 15.5807 8.00452 15.5807ZM7.99738 14.4974C9.80293 14.4974 11.3377 13.8654 12.6015 12.6015C13.8654 11.3377 14.4974 9.80293 14.4974 7.99738C14.4974 6.19182 13.8654 4.6571 12.6015 3.39321C11.3377 2.12932 9.80293 1.49738 7.99738 1.49738C6.19182 1.49738 4.6571 2.12932 3.39321 3.39321C2.12932 4.6571 1.49738 6.19182 1.49738 7.99738C1.49738 9.80293 2.12932 11.3377 3.39321 12.6015C4.6571 13.8654 6.19182 14.4974 7.99738 14.4974Z" fill="#707070"/>
</svg>
