<svg width="16" height="16" viewBox="0 0 16 16" fill="none" xmlns="http://www.w3.org/2000/svg">
<path d="M8.02987 12.6768C8.25393 12.6768 8.44449 12.5982 8.60154 12.4408C8.75858 12.2835 8.8371 12.0928 8.8371 11.8687C8.8371 11.6447 8.75843 11.4541 8.60108 11.2971C8.44374 11.14 8.25304 11.0615 8.02898 11.0615C7.80492 11.0615 7.61438 11.1402 7.45733 11.2975C7.30028 11.4548 7.22175 11.6455 7.22175 11.8696C7.22175 12.0937 7.30042 12.2842 7.45777 12.4413C7.61512 12.5983 7.80582 12.6768 8.02987 12.6768ZM7.43969 9.71371H8.59192C8.6026 9.2479 8.65575 8.91671 8.75138 8.72013C8.84699 8.52356 9.03635 8.28531 9.31948 8.0054C9.81092 7.52783 10.1437 7.13039 10.3179 6.81308C10.492 6.49578 10.5791 6.15356 10.5791 5.78644C10.5791 5.08306 10.3457 4.49847 9.87879 4.03265C9.41192 3.56684 8.81256 3.33394 8.08071 3.33394C7.46854 3.33394 6.92074 3.49874 6.43729 3.82833C5.95386 4.15792 5.60798 4.60208 5.39965 5.16083L6.44929 5.61115C6.60635 5.19555 6.82162 4.89481 7.09512 4.70892C7.36864 4.52301 7.67794 4.43006 8.02302 4.43006C8.45999 4.43006 8.81015 4.55454 9.0735 4.80348C9.33686 5.05241 9.46854 5.37346 9.46854 5.76663C9.46854 6.0914 9.36357 6.37479 9.15363 6.61677C8.9437 6.85876 8.70679 7.10315 8.4429 7.34996C8.0209 7.74632 7.74819 8.09488 7.62479 8.39563C7.50139 8.69638 7.43969 9.13574 7.43969 9.71371ZM7.99877 15.5807C6.95938 15.5807 5.9788 15.3833 5.05702 14.9886C4.13523 14.5939 3.32841 14.0508 2.63656 13.3592C1.9447 12.6677 1.40132 11.8612 1.00642 10.9399C0.611514 10.0185 0.414062 9.03816 0.414062 7.99877C0.414062 6.94549 0.611424 5.96144 1.00615 5.0466C1.40087 4.13176 1.94399 3.32841 2.63552 2.63656C3.32706 1.9447 4.13351 1.40132 5.05488 1.00642C5.97622 0.611515 6.95659 0.414062 7.99598 0.414062C9.04926 0.414062 10.0333 0.611425 10.9481 1.00615C11.863 1.40087 12.6663 1.94399 13.3582 2.63552C14.05 3.32706 14.5934 4.13004 14.9883 5.04446C15.3832 5.95886 15.5807 6.9427 15.5807 7.99598C15.5807 9.03537 15.3833 10.016 14.9886 10.9377C14.5939 11.8595 14.0508 12.6663 13.3592 13.3582C12.6677 14.05 11.8647 14.5934 10.9503 14.9883C10.0359 15.3832 9.05205 15.5807 7.99877 15.5807ZM7.99738 14.4974C9.80293 14.4974 11.3377 13.8654 12.6015 12.6015C13.8654 11.3377 14.4974 9.80293 14.4974 7.99738C14.4974 6.19182 13.8654 4.6571 12.6015 3.39321C11.3377 2.12932 9.80293 1.49738 7.99738 1.49738C6.19182 1.49738 4.6571 2.12932 3.39321 3.39321C2.12932 4.6571 1.49738 6.19182 1.49738 7.99738C1.49738 9.80293 2.12932 11.3377 3.39321 12.6015C4.6571 13.8654 6.19182 14.4974 7.99738 14.4974Z" fill="#707070"/>
</svg>
