<svg width="18" height="14" viewBox="0 0 18 14" fill="none" xmlns="http://www.w3.org/2000/svg">
<path d="M4.33071 11.0138C5.05449 11.0138 5.75867 11.0955 6.44325 11.259C7.12785 11.4225 7.79867 11.6644 8.45573 11.985V2.54265C7.84248 2.17513 7.19139 1.90644 6.50246 1.73656C5.81353 1.56669 5.12024 1.48175 4.4226 1.48175C3.9169 1.48175 3.44342 1.51406 3.00219 1.57869C2.56095 1.64333 2.11811 1.77861 1.67367 1.98454C1.60956 2.0059 1.56415 2.03662 1.53744 2.07669C1.51073 2.11676 1.49738 2.16083 1.49738 2.20892V11.2574C1.49738 11.3322 1.52408 11.3869 1.5775 11.4216C1.63093 11.4564 1.6897 11.4604 1.75381 11.4337C2.10744 11.2713 2.5038 11.1607 2.9429 11.1019C3.38199 11.0432 3.8446 11.0138 4.33071 11.0138ZM9.53902 11.985C10.1961 11.6644 10.8669 11.4225 11.5515 11.259C12.2361 11.0955 12.9403 11.0138 13.664 11.0138C14.1502 11.0138 14.6128 11.0432 15.0519 11.1019C15.491 11.1607 15.8873 11.2713 16.2409 11.4337C16.305 11.4604 16.3638 11.4564 16.4173 11.4216C16.4707 11.3869 16.4974 11.3322 16.4974 11.2574V2.20931C16.4974 2.16124 16.484 2.11851 16.4573 2.0811C16.4306 2.0437 16.3852 2.01165 16.3211 1.98494C15.835 1.82041 15.3609 1.69541 14.899 1.60994C14.4371 1.52448 13.9421 1.48175 13.414 1.48175C12.7378 1.48175 12.0727 1.57363 11.4188 1.7574C10.765 1.94116 10.1384 2.20291 9.53902 2.54265V11.985ZM8.99738 13.4272C8.84888 13.4272 8.71774 13.3896 8.60396 13.3142C8.49018 13.2389 8.36873 13.1676 8.2396 13.1003C7.65505 12.7755 7.04263 12.5271 6.40235 12.3551C5.76206 12.1831 5.10624 12.0971 4.43488 12.0971C4.06522 12.0971 3.69076 12.1048 3.3115 12.1203C2.93222 12.1358 2.56363 12.2045 2.20573 12.3263C1.76984 12.5047 1.36226 12.5143 0.982979 12.3551C0.603701 12.1959 0.414062 11.9235 0.414062 11.5378V2.05227C0.414062 1.83112 0.477632 1.63133 0.604771 1.45292C0.73191 1.2745 0.8895 1.13668 1.07754 1.03946C1.58608 0.764889 2.12104 0.58941 2.68242 0.513021C3.24381 0.436632 3.81407 0.398438 4.39321 0.398438C5.20411 0.398438 5.97548 0.488451 6.70731 0.668479C7.43915 0.848493 8.2025 1.15485 8.99738 1.58754C9.79225 1.15485 10.5556 0.848493 11.2874 0.668479C12.0193 0.488451 12.7906 0.398438 13.6015 0.398438C14.1284 0.398438 14.6474 0.43316 15.1585 0.502604C15.6697 0.572049 16.1587 0.702389 16.6255 0.893625C16.883 1.00474 17.1101 1.15644 17.3066 1.34875C17.5032 1.54106 17.6015 1.77556 17.6015 2.05227V11.5378C17.6015 11.8818 17.4343 12.1342 17.0999 12.295C16.7655 12.4558 16.4028 12.4748 16.0118 12.3519C15.5898 12.2355 15.1653 12.1639 14.7385 12.1372C14.3117 12.1105 13.8841 12.0971 13.4557 12.0971C12.8034 12.0971 12.1663 12.1796 11.5442 12.3447C10.9222 12.5098 10.3312 12.7616 9.7714 13.1003C9.64533 13.1815 9.52042 13.2563 9.39667 13.3247C9.27292 13.393 9.13982 13.4272 8.99738 13.4272Z" fill="#707070"/>
</svg>
