<svg width="16" height="16" viewBox="0 0 16 16" fill="none" xmlns="http://www.w3.org/2000/svg">
<path d="M7.99738 15.5807C6.95357 15.5807 5.97094 15.383 5.04948 14.9877C4.12801 14.5924 3.32272 14.0502 2.6336 13.3611C1.94451 12.672 1.40231 11.8667 1.00702 10.9453C0.611715 10.0238 0.414062 9.04118 0.414062 7.99738C0.414062 6.94503 0.611715 5.96026 1.00702 5.04306C1.40231 4.12587 1.94451 3.32272 2.6336 2.6336C3.32272 1.94451 4.12801 1.40231 5.04948 1.00702C5.97094 0.611716 6.95357 0.414062 7.99738 0.414062C9.04972 0.414062 10.0345 0.611716 10.9517 1.00702C11.8689 1.40231 12.672 1.94451 13.3611 2.6336C14.0502 3.32272 14.5924 4.12587 14.9877 5.04306C15.383 5.96026 15.5807 6.94503 15.5807 7.99738C15.5807 9.04118 15.383 10.0238 14.9877 10.9453C14.5924 11.8667 14.0502 12.672 13.3611 13.3611C12.672 14.0502 11.8689 14.5924 10.9517 14.9877C10.0345 15.383 9.04972 15.5807 7.99738 15.5807ZM7.99738 14.4589C8.2976 14.1587 8.57912 13.6696 8.84194 12.9918C9.10476 12.3139 9.30668 11.5583 9.44771 10.7249H6.54704C6.69875 11.5796 6.90335 12.3459 7.16083 13.0238C7.41831 13.7017 7.69715 14.1801 7.99738 14.4589ZM6.65446 14.3548C6.39057 13.9381 6.15232 13.4135 5.93971 12.781C5.7271 12.1485 5.56417 11.4632 5.45092 10.7249H2.10313C2.54331 11.6875 3.16484 12.4875 3.96773 13.1248C4.77063 13.7621 5.66621 14.1721 6.65446 14.3548ZM9.34029 14.3548C10.3285 14.1721 11.2241 13.7621 12.027 13.1248C12.8299 12.4875 13.4514 11.6875 13.8916 10.7249H10.5438C10.4039 11.4685 10.2276 12.1566 10.015 12.789C9.80237 13.4215 9.57747 13.9434 9.34029 14.3548ZM10.9958 9.64163H14.6144C14.6731 9.34568 14.7151 9.06283 14.7402 8.79306C14.7653 8.52328 14.7779 8.25806 14.7779 7.99738C14.7779 7.73669 14.7653 7.46799 14.7402 7.19127C14.7151 6.91456 14.6731 6.63518 14.6144 6.35313H10.9958C11.0129 6.62236 11.0209 6.90281 11.0198 7.19448C11.0187 7.48615 11.0182 7.76767 11.0182 8.03904C11.0182 8.31042 11.0187 8.58499 11.0198 8.86277C11.0209 9.14055 11.0129 9.40017 10.9958 9.64163ZM6.44769 9.64163H9.54706C9.58552 9.33179 9.60956 9.04466 9.61919 8.78023C9.6288 8.51581 9.6336 8.25486 9.6336 7.99738C9.6336 7.73989 9.6288 7.47547 9.61919 7.2041C9.60956 6.93273 9.58552 6.64907 9.54706 6.35313H6.44769C6.40923 6.64907 6.38519 6.93273 6.37556 7.2041C6.36595 7.47547 6.36115 7.73989 6.36115 7.99738C6.36115 8.25486 6.36595 8.51929 6.37556 8.79065C6.38519 9.06202 6.40923 9.34568 6.44769 9.64163ZM1.38038 9.64163H4.99898C4.98188 9.37239 4.97387 9.09194 4.97494 8.80027C4.97601 8.50861 4.97654 8.22708 4.97654 7.95571C4.97654 7.68433 4.97601 7.40976 4.97494 7.13198C4.97387 6.8542 4.98188 6.59458 4.99898 6.35313H1.38038C1.32161 6.64907 1.27967 6.93192 1.25456 7.20169C1.22945 7.47147 1.2169 7.73669 1.2169 7.99738C1.2169 8.25806 1.22945 8.52328 1.25456 8.79306C1.27967 9.06283 1.32161 9.34568 1.38038 9.64163ZM10.5438 5.26983H13.8916C13.4461 4.29653 12.8286 3.49657 12.039 2.86996C11.2495 2.24336 10.3499 1.8307 9.34029 1.63198C9.60418 2.07535 9.83976 2.60928 10.047 3.23375C10.2543 3.85822 10.4199 4.53692 10.5438 5.26983ZM6.54704 5.26983H9.44771C9.296 4.42047 9.0874 3.65017 8.8219 2.95892C8.55641 2.26768 8.28157 1.79332 7.99738 1.53583C7.71318 1.79332 7.43834 2.26768 7.17285 2.95892C6.90735 3.65017 6.69875 4.42047 6.54704 5.26983ZM2.10313 5.26983H5.45092C5.57485 4.53692 5.74045 3.85822 5.94773 3.23375C6.15499 2.60928 6.39057 2.07535 6.65446 1.63198C5.6395 1.8307 4.73858 2.2447 3.95171 2.87398C3.16485 3.50326 2.54865 4.30188 2.10313 5.26983Z" fill="#707070"/>
</svg>
