<svg width="16" height="16" viewBox="0 0 16 16" fill="none" xmlns="http://www.w3.org/2000/svg">
<path d="M4.74298 7.15121C4.92219 7.15121 5.07669 7.08777 5.2065 6.9609C5.33631 6.83401 5.40121 6.68097 5.40121 6.50177C5.40121 6.32256 5.33777 6.16806 5.2109 6.03825C5.08401 5.90844 4.93097 5.84354 4.75177 5.84354C4.57256 5.84354 4.41806 5.90698 4.28825 6.03385C4.15844 6.16074 4.09354 6.31379 4.09354 6.49298C4.09354 6.67219 4.15698 6.8267 4.28385 6.9565C4.41074 7.08631 4.56378 7.15121 4.74298 7.15121ZM7.99298 7.15121C8.17219 7.15121 8.32669 7.08777 8.4565 6.9609C8.58631 6.83401 8.65121 6.68097 8.65121 6.50177C8.65121 6.32256 8.58777 6.16806 8.4609 6.03825C8.33401 5.90844 8.18097 5.84354 8.00177 5.84354C7.82256 5.84354 7.66806 5.90698 7.53825 6.03385C7.40844 6.16074 7.34354 6.31379 7.34354 6.49298C7.34354 6.67219 7.40698 6.8267 7.53385 6.9565C7.66074 7.08631 7.81378 7.15121 7.99298 7.15121ZM11.243 7.15121C11.4222 7.15121 11.5767 7.08777 11.7065 6.9609C11.8363 6.83401 11.9012 6.68097 11.9012 6.50177C11.9012 6.32256 11.8378 6.16806 11.7109 6.03825C11.584 5.90844 11.431 5.84354 11.2518 5.84354C11.0726 5.84354 10.9181 5.90698 10.7882 6.03385C10.6584 6.16074 10.5935 6.31379 10.5935 6.49298C10.5935 6.67219 10.657 6.8267 10.7839 6.9565C10.9107 7.08631 11.0638 7.15121 11.243 7.15121ZM0.414062 15.196V1.75381C0.414062 1.3787 0.543576 1.06163 0.802604 0.802605C1.06163 0.543577 1.3787 0.414062 1.75381 0.414062H14.2409C14.616 0.414062 14.9331 0.543577 15.1921 0.802605C15.4512 1.06163 15.5807 1.3787 15.5807 1.75381V11.2409C15.5807 11.6161 15.4512 11.9331 15.1921 12.1921C14.9331 12.4512 14.616 12.5807 14.2409 12.5807H3.02944L0.414062 15.196ZM2.58073 11.4974H14.2409C14.305 11.4974 14.3638 11.4707 14.4173 11.4173C14.4707 11.3638 14.4974 11.305 14.4974 11.2409V1.75381C14.4974 1.6897 14.4707 1.63093 14.4173 1.5775C14.3638 1.52408 14.305 1.49738 14.2409 1.49738H1.75381C1.6897 1.49738 1.63093 1.52408 1.5775 1.5775C1.52408 1.63093 1.49738 1.6897 1.49738 1.75381V12.5887L2.58073 11.4974Z" fill="#707070"/>
</svg>
