<svg width="14" height="12" viewBox="0 0 14 12" fill="none" xmlns="http://www.w3.org/2000/svg">
<path d="M0.414062 11.4899V10.4066H13.5807V11.4899H0.414062ZM0.414062 1.59894V0.515625H13.5807V1.59894H0.414062ZM1.75381 8.58608C1.38842 8.58608 1.07378 8.45414 0.809896 8.19025C0.546007 7.92636 0.414062 7.61172 0.414062 7.24633V4.75921C0.414062 4.3841 0.546007 4.06703 0.809896 3.808C1.07378 3.54897 1.38842 3.41946 1.75381 3.41946H12.2409C12.616 3.41946 12.9331 3.54897 13.1921 3.808C13.4512 4.06703 13.5807 4.3841 13.5807 4.75921V7.24633C13.5807 7.61172 13.4512 7.92636 13.1921 8.19025C12.9331 8.45414 12.616 8.58608 12.2409 8.58608H1.75381ZM1.75381 7.50277H12.2409C12.305 7.50277 12.3638 7.47606 12.4172 7.42265C12.4707 7.36922 12.4974 7.31044 12.4974 7.24633V4.75921C12.4974 4.6951 12.4707 4.63633 12.4172 4.5829C12.3638 4.52948 12.305 4.50277 12.2409 4.50277H1.75381C1.6897 4.50277 1.63093 4.52948 1.5775 4.5829C1.52408 4.63633 1.49737 4.6951 1.49737 4.75921V7.24633C1.49737 7.31044 1.52408 7.36922 1.5775 7.42265C1.63093 7.47606 1.6897 7.50277 1.75381 7.50277Z" fill="#707070"/>
</svg>
