<svg width="16" height="12" viewBox="0 0 16 12" fill="none" xmlns="http://www.w3.org/2000/svg">
<path d="M1.75381 11.5807C1.3787 11.5807 1.06163 11.4511 0.802604 11.1919C0.543576 10.9327 0.414062 10.6154 0.414062 10.2401V1.7479C0.414062 1.37256 0.543576 1.05642 0.802604 0.799479C1.06163 0.542535 1.3787 0.414062 1.75381 0.414062H14.2409C14.616 0.414062 14.9331 0.543661 15.1921 0.802855C15.4512 1.06205 15.5807 1.37931 15.5807 1.75465V10.2469C15.5807 10.6222 15.4512 10.9383 15.1921 11.1953C14.9331 11.4522 14.616 11.5807 14.2409 11.5807H1.75381ZM1.75381 10.4974H14.2409C14.305 10.4974 14.3638 10.4707 14.4173 10.4173C14.4707 10.3638 14.4974 10.305 14.4974 10.2409V2.99738H1.49738V10.2409C1.49738 10.305 1.52408 10.3638 1.5775 10.4173C1.63093 10.4707 1.6897 10.4974 1.75381 10.4974Z" fill="#707070"/>
</svg>
